<?xml version="1.0" encoding="UTF-8" standalone="no"?>
<!-- Created with Inkscape (http://www.inkscape.org/) -->

<svg
   xmlns:dc="http://purl.org/dc/elements/1.1/"
   xmlns:cc="http://creativecommons.org/ns#"
   xmlns:rdf="http://www.w3.org/1999/02/22-rdf-syntax-ns#"
   xmlns:svg="http://www.w3.org/2000/svg"
   xmlns="http://www.w3.org/2000/svg"
   xmlns:xlink="http://www.w3.org/1999/xlink"
   xmlns:sodipodi="http://sodipodi.sourceforge.net/DTD/sodipodi-0.dtd"
   xmlns:inkscape="http://www.inkscape.org/namespaces/inkscape"
   width="174.97778mm"
   height="45.961906mm"
   viewBox="0 0 620.00002 162.85715"
   id="svg2"
   version="1.1"
   inkscape:version="0.91 r13725"
   sodipodi:docname="resume.svg">
  <defs
     id="defs4">
    <linearGradient
       inkscape:collect="always"
       id="linearGradient4751">
      <stop
         style="stop-color:#d5e5ff;stop-opacity:1;"
         offset="0"
         id="stop4753" />
      <stop
         style="stop-color:#d5e5ff;stop-opacity:0;"
         offset="1"
         id="stop4755" />
    </linearGradient>
    <filter
       inkscape:collect="always"
       style="color-interpolation-filters:sRGB"
       id="filter4491"
       x="-0.017834468"
       width="1.0356688"
       y="-0.094379999"
       height="1.18876">
      <feGaussianBlur
         inkscape:collect="always"
         stdDeviation="3.9352933"
         id="feGaussianBlur4493" />
    </filter>
    <filter
       inkscape:collect="always"
       style="color-interpolation-filters:sRGB"
       id="filter4595"
       x="-0.049223129"
       width="1.0984462"
       y="-0.26048881"
       height="1.5209776">
      <feGaussianBlur
         inkscape:collect="always"
         stdDeviation="10.86141"
         id="feGaussianBlur4597" />
    </filter>
    <radialGradient
       inkscape:collect="always"
       xlink:href="#linearGradient4751"
       id="radialGradient4757"
       cx="351.42859"
       cy="405.21933"
       fx="351.42859"
       fy="405.21933"
       r="308.57144"
       gradientTransform="matrix(1,0,0,0.27314813,0,294.53443)"
       gradientUnits="userSpaceOnUse" />
  </defs>
  <sodipodi:namedview
     id="base"
     pagecolor="#ffffff"
     bordercolor="#666666"
     borderopacity="1.0"
     inkscape:pageopacity="0.0"
     inkscape:pageshadow="2"
     inkscape:zoom="0.35"
     inkscape:cx="762.74465"
     inkscape:cy="-55.71429"
     inkscape:document-units="px"
     inkscape:current-layer="layer1"
     showgrid="false"
     inkscape:window-width="1440"
     inkscape:window-height="811"
     inkscape:window-x="0"
     inkscape:window-y="1"
     inkscape:window-maximized="1"
     fit-margin-top="0"
     fit-margin-left="0"
     fit-margin-right="0"
     fit-margin-bottom="0" />
  <metadata
     id="metadata7">
    <rdf:RDF>
      <cc:Work
         rdf:about="">
        <dc:format>image/svg+xml</dc:format>
        <dc:type
           rdf:resource="http://purl.org/dc/dcmitype/StillImage" />
        <dc:title></dc:title>
      </cc:Work>
    </rdf:RDF>
  </metadata>
  <g
     inkscape:label="Layer 1"
     inkscape:groupmode="layer"
     id="layer1"
     transform="translate(-42.857143,-318.07648)">
    <rect
       style="opacity:0.88500001;fill:#d5e5ff;fill-opacity:1;stroke:none;stroke-width:20;stroke-miterlimit:4;stroke-dasharray:none;stroke-opacity:1"
       id="rect4145"
       width="620"
       height="162.85715"
       x="42.857143"
       y="318.07648" />
    <rect
       style="opacity:0.88500001;fill:url(#radialGradient4757);fill-opacity:1;stroke:none;stroke-width:20;stroke-miterlimit:4;stroke-dasharray:none;stroke-opacity:1"
       id="rect4601"
       width="617.14288"
       height="168.57143"
       x="42.857143"
       y="320.93362" />
    <path
       style="font-style:normal;font-variant:normal;font-weight:normal;font-stretch:normal;font-size:medium;line-height:125%;font-family:'Retro Stereo Wide';-inkscape-font-specification:'Retro Stereo Wide, Normal';text-align:start;letter-spacing:0px;word-spacing:0px;writing-mode:lr-tb;text-anchor:start;fill:#0044aa;fill-opacity:1;stroke:#0055d4;stroke-width:20;stroke-linecap:butt;stroke-linejoin:miter;stroke-miterlimit:4;stroke-dasharray:none;stroke-opacity:1;filter:url(#filter4595)"
       d="m 124.21803,352.94308 c -10.34067,0 -19.18027,3.66927 -26.518814,11.0078 -7.338539,7.33856 -11.00781,16.14481 -11.00781,26.41875 l 0,62.64448 12.20867,0 0,-62.64448 c 0,-6.93825 2.468414,-12.8758 7.405254,-17.81263 4.93684,-4.93685 10.90773,-7.40527 17.9127,-7.40527 6.93828,0 12.87583,2.46842 17.81266,7.40527 4.93685,4.93683 7.40524,10.87438 7.40524,17.81263 0,7.00499 -2.43503,12.97589 -7.30518,17.91272 l -0.90063,0.90064 -1.20085,1.20085 c -3.06883,3.00214 -4.60328,6.63805 -4.60328,10.90773 0,4.203 1.51775,7.82223 4.55325,10.85773 3.03547,3.0354 6.68806,4.58653 10.95776,4.65329 l 12.20868,0 0,-12.20864 -12.20868,0 c -0.93398,0 -1.73455,-0.33358 -2.4017,-1.00073 -0.66712,-0.66712 -1.0007,-1.43433 -1.0007,-2.30164 0,-0.93398 0.33358,-1.73455 1.0007,-2.4017 0.60036,-0.60044 0.93394,-0.90063 1.00072,-0.90063 0.40026,-0.40026 0.80055,-0.76722 1.20085,-1.10077 7.27183,-7.27185 10.90774,-16.11145 10.90774,-26.51884 0,-10.27394 -3.65261,-19.08019 -10.95777,-26.41875 -7.3052,-7.33853 -16.12813,-11.0078 -26.46881,-11.0078 z m 73.85244,0 c -8.27255,0 -15.34422,2.90205 -21.21506,8.70619 -5.47054,5.53724 -8.37261,12.10856 -8.70619,19.71398 l 0,43.23069 c 0.33358,7.60537 3.23565,14.17672 8.70619,19.71398 5.87084,5.80414 12.94251,8.70619 21.21506,8.70619 l 32.92336,0 0,-12.20868 -32.92336,0 c -4.87012,0 -9.03976,-1.73456 -12.50888,-5.20369 -3.46913,-3.46911 -5.20369,-7.63876 -5.20369,-12.50887 l 0,-40.22857 c 0,-4.87012 1.73456,-9.03974 5.20369,-12.50887 3.46912,-3.46912 7.63876,-5.2037 12.50888,-5.2037 l 32.92336,0 0,-12.20865 -32.92336,0 z m 70.24985,0 c -8.87297,0 -16.44501,3.13556 -22.71611,9.40666 -6.27113,6.27113 -9.40669,13.80982 -9.40669,22.61607 0,8.93967 3.13556,16.52839 9.40669,22.76616 6.2711,6.23775 13.84314,9.35663 22.71611,9.35663 l 10.7076,0 c 1.06743,0 1.96807,0.36694 2.70193,1.10079 0.73385,0.73386 1.10078,1.60114 1.10078,2.60183 0,1.06744 -0.36693,1.96808 -1.10078,2.70194 -0.73386,0.73385 -1.6345,1.10079 -2.70193,1.10079 l -42.8304,0 0,12.20864 42.8304,0 c 4.40313,0 8.17246,-1.56778 11.30802,-4.70332 3.13556,-3.13556 4.70335,-6.90489 4.70335,-11.30805 0,-4.33638 -1.56779,-8.0557 -4.70335,-11.15791 -3.13556,-3.10218 -6.90489,-4.65328 -11.30802,-4.65328 l -10.7076,-0.10008 c -5.47056,-2e-5 -10.1572,-1.95139 -14.05998,-5.85415 -3.90278,-3.90278 -5.85414,-8.58945 -5.85414,-14.05998 0,-5.47057 1.95136,-10.14055 5.85414,-14.00994 3.90278,-3.86943 8.58942,-5.80414 14.05998,-5.80414 l 42.8304,0 0,-12.20865 -42.8304,0 z m 47.7339,0 0,12.20865 7.80552,0 c 4.87015,0 9.03976,1.73458 12.50887,5.20371 3.13557,3.13555 4.83677,6.80482 5.10363,11.00781 l 0,34.22429 c 0,5.80412 2.06813,10.791 6.20442,14.96064 4.13626,4.1696 9.1398,6.25441 15.01064,6.25441 5.93755,0 10.99115,-2.08481 15.16077,-6.25441 4.16965,-4.16964 6.25446,-9.15652 6.25446,-14.96064 l 0,-32.72323 c 0,-4.87012 1.71787,-9.03974 5.15366,-12.50887 3.43575,-3.46912 7.62207,-5.20371 12.5589,-5.20371 l 7.80552,0 0,-12.20865 -7.80552,0 c -8.27256,0 -15.31086,2.90205 -21.11499,8.70619 -5.80411,5.87081 -8.70619,12.8758 -8.70619,21.01491 l 0,32.92336 c 0,2.46843 -0.90063,4.58659 -2.7019,6.35451 -1.80129,1.76793 -4.00284,2.65189 -6.6047,2.65189 -2.53512,0 -4.68664,-0.88396 -6.45458,-2.65189 -1.76791,-1.76792 -2.65189,-3.88608 -2.65189,-6.35451 l 0,-32.82331 0.10009,0 c 0,-8.2058 -2.90205,-15.22746 -8.70618,-21.06493 -5.80414,-5.83749 -12.84245,-8.75622 -21.115,-8.75622 l -7.80552,0 z m 267.2897,0 c -8.27253,0 -15.34421,2.90205 -21.21506,8.70619 -5.47056,5.53724 -8.37261,12.10856 -8.70615,19.71398 l 0,43.23069 c 0.33354,7.60537 3.23559,14.17672 8.70615,19.71398 5.87085,5.80414 12.94253,8.70619 21.21506,8.70619 l 32.92338,0 0,-12.20868 -32.92338,0 c -4.87012,0 -9.03974,-1.73456 -12.50888,-5.20369 -3.46912,-3.46911 -5.20369,-7.63876 -5.20369,-12.50887 l 0,-40.22857 c 0,-4.87012 1.73456,-9.03974 5.20369,-12.50887 3.46915,-3.46912 7.63877,-5.2037 12.50888,-5.2037 l 32.92338,0 0,-12.20865 -32.92338,0 z m -124.44832,0.035 c -1.73717,-0.0751 -3.51751,0.11508 -5.34379,0.5654 -4.73668,1.20087 -8.37259,3.90278 -10.90774,8.10577 -0.93399,1.60113 -1.6345,3.23563 -2.10148,4.90347 l -13.70975,55.03905 c -0.20013,0.46702 -0.50035,0.90064 -0.90064,1.30093 -1.13414,1.13414 -2.50177,1.70123 -4.1029,1.70123 l -7.10505,0 0,12.20864 9.20653,0 c 4.06958,0 7.57205,-1.46769 10.50745,-4.40312 2.20158,-2.20155 3.56921,-4.77006 4.10293,-7.70546 0.40026,-1.40099 2.78529,-10.95777 7.15506,-28.67037 4.36977,-17.71256 6.85489,-27.0692 7.4553,-28.06992 0.80057,-1.33426 1.93471,-2.20156 3.40243,-2.60182 1.46769,-0.33359 2.88535,-0.1001 4.253,0.70047 1.36766,0.80056 2.25161,1.96809 2.65189,3.50249 0.13345,0.46702 5.63734,22.38255 16.51172,65.74668 0,0.40026 0.13342,0.73384 0.40028,1.0007 0.33358,0.33358 0.73386,0.50035 1.20085,0.50035 0.467,0 0.86728,-0.16676 1.20086,-0.50035 0.26681,-0.26686 0.43358,-0.5337 0.50035,-0.80057 10.94114,-43.56426 16.47841,-65.5465 16.6118,-65.94681 0.40028,-1.5344 1.26756,-2.70193 2.60183,-3.50249 1.3343,-0.80057 2.73531,-1.03406 4.203,-0.70047 1.46772,0.40026 2.60183,1.26756 3.4024,2.60182 0.60044,1.00072 5.47056,19.91414 14.61038,56.74029 0.53371,2.9354 1.90136,5.50391 4.10291,7.70546 2.93541,2.93544 6.4379,4.40312 10.50744,4.40312 l 9.20655,0 0,-12.20864 -7.10504,0 c -1.60113,0 -2.96879,-0.56709 -4.10293,-1.70123 -0.40028,-0.40029 -0.70048,-0.83391 -0.90063,-1.30093 l -13.70973,-55.03902 c -0.46699,-1.66786 -1.16749,-3.30234 -2.10148,-4.90348 -2.53515,-4.203 -6.17106,-6.9049 -10.90776,-8.10578 -4.80341,-1.20082 -9.33996,-0.5337 -13.60966,2.00143 -4.26968,2.53514 -6.97161,6.20441 -8.10575,11.00783 l -6.40455,25.81831 -6.30448,-25.81831 c -1.13414,-4.80341 -3.81939,-8.47268 -8.05571,-11.00783 -2.64772,-1.58447 -5.4206,-2.44173 -8.31589,-2.56682 z m -334.67756,16.17647 c -5.93754,0 -10.99112,2.08481 -15.16076,6.25445 -4.16961,4.16964 -6.22108,9.15651 -6.15437,14.96061 l 0,62.64448 12.20867,0 0,-62.64448 c -0.0667,-2.46841 0.80057,-4.60325 2.60185,-6.40454 1.80128,-1.80127 3.96948,-2.70193 6.5046,-2.70193 2.46842,0 4.60328,0.90066 6.40455,2.70193 1.80126,1.80129 2.70192,3.93613 2.70192,6.40454 0,2.46844 -0.83392,4.56993 -2.50177,6.30448 -0.80056,0.66715 -1.56778,1.36766 -2.30164,2.10149 -6.20439,6.27112 -9.3066,13.77646 -9.3066,22.51597 0,8.73954 3.10221,16.2115 9.3066,22.41591 6.20442,6.20442 13.6764,9.30663 22.41591,9.30663 l 12.20868,0 0,-12.20868 -12.20868,0 c -5.40382,0 -10.02378,-1.91803 -13.85982,-5.75407 -3.83606,-3.83604 -5.7541,-8.42265 -5.7541,-13.75979 0,-5.40384 1.93471,-10.0071 5.80413,-13.80979 0.66713,-0.66712 1.33428,-1.26756 2.00143,-1.80126 4.26968,-4.26971 6.40454,-9.37331 6.40454,-15.31089 0,-5.8041 -2.08481,-10.79097 -6.25445,-14.96061 -4.16961,-4.16964 -9.18985,-6.25445 -15.06069,-6.25445 z m 73.65228,0 c -3.66928,0 -6.83818,1.30092 -9.50673,3.90278 -2.335,2.40172 -3.63591,5.17034 -3.90278,8.3059 l -0.10006,0 0,19.21364 40.32861,0 0,-12.20868 -27.91981,0 0,-3.10221 c 0,-1.0674 0.40029,-2.00139 1.20086,-2.80196 0.80056,-0.80057 1.73455,-1.20088 2.80198,-1.20088 l 30.22144,0 0,-12.10859 -33.12351,0 z m 70.45001,0 c -4.40313,0.0667 -8.17246,1.63452 -11.30802,4.70335 -3.13554,3.13556 -4.70335,6.87155 -4.70335,11.20796 0,4.40312 1.56781,8.17248 4.70335,11.30802 3.13556,3.13556 6.90489,4.70335 11.30802,4.70335 l 10.7076,0 c 5.47056,0 10.1572,1.9347 14.05998,5.8041 3.90277,3.86942 5.85416,8.53941 5.85416,14.00997 0,5.47053 -1.95139,10.1572 -5.85416,14.05998 -3.90278,3.90275 -8.58942,5.85413 -14.05998,5.85413 l -42.8304,0 0,12.20869 42.8304,0 c 8.80625,0 16.36162,-3.1189 22.6661,-9.35666 6.30448,-6.23774 9.4567,-13.82646 9.4567,-22.76613 0,-8.80626 -3.15222,-16.34494 -9.4567,-22.61607 -6.30448,-6.2711 -13.85985,-9.40666 -22.6661,-9.40666 l -10.7076,0 c -1.06741,0 -1.96805,-0.36693 -2.7019,-1.10079 -0.73386,-0.73386 -1.1008,-1.63449 -1.1008,-2.70193 0,-1.06743 0.36694,-1.96806 1.1008,-2.70192 0.73385,-0.73383 1.63449,-1.10079 2.7019,-1.10079 l 42.8304,0 0,-12.10859 -42.8304,0 z m 47.7339,0 0,12.10859 5.20369,0 c 1.06741,0 2.00142,0.40031 2.80199,1.20088 0.80057,0.80057 1.20085,1.73456 1.20085,2.80196 l 0,30.32153 c 0,10.34069 3.65258,19.16362 10.95777,26.4688 7.3052,7.3052 16.12813,10.95779 26.46877,10.95779 10.4074,0 19.28035,-3.65259 26.61892,-10.95779 7.33853,-7.30518 11.00779,-16.12811 11.00779,-26.4688 l 0,-30.32152 c 0,-1.0674 0.40028,-2.00139 1.20085,-2.80197 0.80057,-0.80056 1.73456,-1.20088 2.80199,-1.20088 l 5.30376,0 0,-12.10858 -8.10575,0 c -3.73597,0 -6.90492,1.31759 -9.50675,3.95281 -2.60184,2.63522 -3.90275,5.78742 -3.90275,9.45671 l 0,33.02343 c 0,6.87158 -2.46842,12.79242 -7.40527,17.76264 -4.93683,4.97018 -10.94108,7.45526 -18.01279,7.45526 -6.93824,0 -12.8758,-2.48509 -17.81263,-7.45526 -4.93685,-4.97022 -7.40527,-10.89106 -7.40527,-17.76264 l 0,-33.02342 c 0,-3.6693 -1.31761,-6.8215 -3.95281,-9.45672 -2.63519,-2.63522 -5.78742,-3.95281 -9.45668,-3.95281 l -8.00568,0 z m 142.00077,0 c -0.467,0 -0.86728,0.16678 -1.20086,0.50038 -0.26678,0.26684 -0.43356,0.5337 -0.50034,0.80057 l -14.61036,58.24132 c -0.86728,2.335 -2.335,4.53655 -4.40313,6.6047 -3.66929,3.66924 -8.10577,5.50389 -13.30946,5.50389 l -9.3066,0 0,12.20868 9.3066,0 c 8.60612,0 15.94465,-3.0355 22.01562,-9.10647 4.46984,-4.46984 7.27183,-9.70691 8.40597,-15.71115 l 3.60256,-13.80981 6.30448,25.01777 c 1.13414,4.80341 3.83606,8.47268 8.10574,11.0078 4.26971,2.53515 8.80626,3.2023 13.60966,2.00142 4.7367,-1.20083 8.37262,-3.90275 10.90777,-8.10575 0.93398,-1.60113 1.63449,-3.23562 2.10148,-4.90347 l 6.30448,-25.01777 3.50247,13.80981 c 1.13414,6.00424 3.93613,11.24131 8.40597,15.71115 6.07097,6.07097 13.4095,9.10647 22.01562,9.10647 l 9.20654,0 0,-12.20868 -9.20654,0 c -5.20369,0 -9.64017,-1.83465 -13.30944,-5.50389 -2.06813,-2.06815 -3.53582,-4.2697 -4.40312,-6.6047 L 506.98975,370.4555 c -0.0667,-0.26687 -0.23351,-0.53373 -0.50038,-0.80057 -0.33357,-0.3336 -0.73385,-0.50038 -1.20085,-0.50038 -0.46699,0 -0.86728,0.16678 -1.20085,0.50038 -0.26684,0.26684 -0.40028,0.60041 -0.40028,1.0007 -11.14125,44.29811 -16.87865,66.74738 -17.21222,67.34779 -0.80057,1.3343 -1.93469,2.20155 -3.4024,2.60186 -1.46769,0.33355 -2.8687,0.10007 -4.203,-0.7005 -1.33427,-0.80057 -2.20155,-1.93471 -2.60183,-3.40243 -0.0667,-0.33357 -5.60398,-22.28247 -16.61181,-65.84672 0,-0.40029 -0.16677,-0.73386 -0.50035,-1.0007 -0.26686,-0.3336 -0.63379,-0.50038 -1.10078,-0.50038 z m 125.0888,0 c -3.66927,0 -6.8382,1.30092 -9.50676,3.90278 -2.33497,2.40172 -3.63591,5.17034 -3.90278,8.3059 l -0.10006,0 0,19.21364 40.32863,0 0,-12.20868 -27.91982,0 0,-3.10221 c 0,-1.0674 0.40028,-2.00139 1.20084,-2.80196 0.80057,-0.80057 1.73456,-1.20088 2.802,-1.20088 l 30.22146,0 0,-12.10859 -33.12351,0 z m -398.78305,36.22573 0,19.21364 0.10006,0 c 0.26687,3.13556 1.56778,5.90419 3.90278,8.3059 2.66855,2.60183 5.83745,3.90275 9.50673,3.90275 l 33.12351,0 0,-12.20864 -30.22144,0 c -1.06743,0 -2.00142,-0.40029 -2.80198,-1.20086 -0.80057,-0.80056 -1.20086,-1.73458 -1.20086,-2.80198 l 0,-3.00215 27.91981,0 0,-12.20865 -40.32861,0 z m 385.27345,0 0,19.21364 0.10006,0 c 0.26686,3.13556 1.56781,5.90417 3.90278,8.3059 2.66857,2.60183 5.83749,3.90275 9.50676,3.90275 l 33.12351,0 0,-12.20864 -30.22146,0 c -1.06743,0 -2.00143,-0.40029 -2.802,-1.20086 -0.80056,-0.80056 -1.20084,-1.73458 -1.20084,-2.80198 l 0,-3.00215 27.91982,0 0,-12.20865 -40.32863,0 z"
       id="path4192"
       inkscape:connector-curvature="0" />
    <path
       inkscape:connector-curvature="0"
       id="path4211"
       d="m 124.21804,352.94308 c -10.34068,0 -19.18027,3.66927 -26.518822,11.0078 -7.338539,7.33856 -11.007811,16.14481 -11.007811,26.41875 l 0,62.64448 12.208671,0 0,-62.64448 c 0,-6.93825 2.468422,-12.8758 7.405252,-17.81263 4.93684,-4.93685 10.90773,-7.40527 17.9127,-7.40527 6.93828,0 12.87583,2.46842 17.81266,7.40527 4.93685,4.93683 7.40524,10.87438 7.40524,17.81263 0,7.00499 -2.43503,12.97589 -7.30518,17.91272 l -0.90063,0.90064 -1.20085,1.20085 c -3.06883,3.00214 -4.60328,6.63805 -4.60328,10.90773 0,4.203 1.51775,7.82223 4.55325,10.85773 3.03547,3.0354 6.68806,4.58653 10.95776,4.65329 l 12.20868,0 0,-12.20865 -12.20868,0 c -0.93398,0 -1.73455,-0.33358 -2.4017,-1.00073 -0.66712,-0.66712 -1.0007,-1.43433 -1.0007,-2.30164 0,-0.93398 0.33358,-1.73455 1.0007,-2.4017 0.60036,-0.60044 0.93394,-0.90063 1.00072,-0.90063 0.40026,-0.40026 0.80055,-0.76722 1.20085,-1.10077 7.27183,-7.27185 10.90774,-16.11145 10.90774,-26.51884 0,-10.27394 -3.65261,-19.08019 -10.95777,-26.41875 -7.3052,-7.33853 -16.12813,-11.0078 -26.46881,-11.0078 z m 73.85243,0 c -8.27255,0 -15.34422,2.90205 -21.21506,8.70619 -5.47054,5.53724 -8.37261,12.10856 -8.70619,19.71398 l 0,43.23069 c 0.33359,7.60537 3.23565,14.17672 8.70619,19.71398 5.87084,5.80414 12.94251,8.70619 21.21506,8.70619 l 32.92336,0 0,-12.20868 -32.92336,0 c -4.87012,0 -9.03976,-1.73456 -12.50888,-5.20369 -3.46913,-3.46911 -5.20369,-7.63876 -5.20369,-12.50887 l 0,-40.22857 c 0,-4.87012 1.73456,-9.03974 5.20369,-12.50887 3.46912,-3.46912 7.63876,-5.2037 12.50888,-5.2037 l 32.92336,0 0,-12.20865 -32.92336,0 z m 70.24985,0 c -8.87297,0 -16.44501,3.13556 -22.71611,9.40666 -6.27113,6.27113 -9.40669,13.80982 -9.40669,22.61607 0,8.93967 3.13556,16.52839 9.40669,22.76616 6.2711,6.23775 13.84314,9.35663 22.71611,9.35663 l 10.7076,0 c 1.06743,0 1.96807,0.36693 2.70193,1.10079 0.73385,0.73386 1.10078,1.60114 1.10078,2.60183 0,1.06744 -0.36693,1.96807 -1.10078,2.70193 -0.73386,0.73386 -1.6345,1.10079 -2.70193,1.10079 l -42.8304,0 0,12.20865 42.8304,0 c 4.40313,0 8.17246,-1.56778 11.30802,-4.70332 3.13556,-3.13556 4.70335,-6.90489 4.70335,-11.30805 0,-4.33638 -1.56779,-8.05571 -4.70335,-11.15792 -3.13556,-3.10218 -6.90489,-4.65328 -11.30802,-4.65328 l -10.7076,-0.10007 c -5.47056,-3e-5 -10.1572,-1.95139 -14.05998,-5.85416 -3.90278,-3.90278 -5.85414,-8.58945 -5.85414,-14.05998 0,-5.47056 1.95136,-10.14055 5.85414,-14.00994 3.90278,-3.86943 8.58942,-5.80414 14.05998,-5.80414 l 42.8304,0 0,-12.20865 -42.8304,0 z m 47.7339,0 0,12.20865 7.80552,0 c 4.87015,0 9.03976,1.73458 12.50887,5.2037 3.13557,3.13556 4.83677,6.80483 5.10363,11.00782 l 0,34.22428 c 0,5.80413 2.06813,10.791 6.20443,14.96064 4.13625,4.16961 9.13979,6.25442 15.01064,6.25442 5.93755,0 10.99115,-2.08481 15.16077,-6.25442 4.16964,-4.16964 6.25445,-9.15651 6.25445,-14.96064 l 0,-32.72323 c 0,-4.87012 1.71787,-9.03974 5.15366,-12.50887 3.43575,-3.46912 7.62207,-5.2037 12.5589,-5.2037 l 7.80553,0 0,-12.20865 -7.80553,0 c -8.27255,0 -15.31086,2.90205 -21.11499,8.70619 -5.80411,5.87081 -8.70619,12.8758 -8.70619,21.0149 l 0,32.92336 c 0,2.46844 -0.90063,4.5866 -2.7019,6.35452 -1.80129,1.76793 -4.00284,2.65189 -6.6047,2.65189 -2.53512,0 -4.68664,-0.88396 -6.45458,-2.65189 -1.76791,-1.76792 -2.65189,-3.88608 -2.65189,-6.35452 l 0,-32.8233 0.10009,0 c 0,-8.20581 -2.90205,-15.22747 -8.70618,-21.06493 -5.80414,-5.83749 -12.84245,-8.75622 -21.115,-8.75622 l -7.80552,0 z m 267.2897,0 c -8.27253,0 -15.34422,2.90205 -21.21506,8.70619 -5.47056,5.53724 -8.37261,12.10856 -8.70616,19.71398 l 0,43.23069 c 0.33355,7.60537 3.2356,14.17672 8.70616,19.71398 5.87084,5.80414 12.94253,8.70619 21.21506,8.70619 l 32.92338,0 0,-12.20868 -32.92338,0 c -4.87012,0 -9.03974,-1.73456 -12.50887,-5.20369 -3.46913,-3.46911 -5.2037,-7.63876 -5.2037,-12.50887 l 0,-40.22857 c 0,-4.87012 1.73456,-9.03974 5.2037,-12.50887 3.46913,-3.46912 7.63876,-5.2037 12.50887,-5.2037 l 32.92338,0 0,-12.20865 -32.92338,0 z m -124.44832,0.035 c -1.73717,-0.0751 -3.51751,0.11508 -5.3438,0.56539 -4.73667,1.20088 -8.37259,3.90278 -10.90774,8.10578 -0.93398,1.60113 -1.63449,3.23562 -2.10147,4.90347 l -13.70975,55.03905 c -0.20013,0.46702 -0.50035,0.90064 -0.90064,1.30092 -1.13414,1.13414 -2.50177,1.70123 -4.1029,1.70123 l -7.10505,0 0,12.20865 9.20653,0 c 4.06958,0 7.57205,-1.46769 10.50745,-4.40313 2.20158,-2.20155 3.56921,-4.77005 4.10293,-7.70546 0.40026,-1.40098 2.78529,-10.95777 7.15506,-28.67036 4.36977,-17.71256 6.85489,-27.0692 7.4553,-28.06992 0.80057,-1.33427 1.93471,-2.20157 3.40243,-2.60183 1.46769,-0.33358 2.88535,-0.10009 4.253,0.70048 1.36766,0.80056 2.25161,1.96809 2.65189,3.50249 0.13344,0.46702 5.63734,22.38255 16.51172,65.74668 0,0.40026 0.13342,0.73384 0.40028,1.0007 0.33358,0.33358 0.73386,0.50035 1.20085,0.50035 0.467,0 0.86728,-0.16677 1.20086,-0.50035 0.26681,-0.26686 0.43358,-0.5337 0.50035,-0.80057 10.94114,-43.56426 16.47841,-65.5465 16.6118,-65.94681 0.40028,-1.5344 1.26756,-2.70193 2.60183,-3.50249 1.3343,-0.80057 2.73531,-1.03406 4.203,-0.70048 1.46772,0.40026 2.60183,1.26756 3.4024,2.60183 0.60044,1.00072 5.47056,19.91414 14.61038,56.74028 0.53371,2.93541 1.90136,5.50391 4.10291,7.70546 2.93541,2.93544 6.43789,4.40313 10.50744,4.40313 l 9.20655,0 0,-12.20865 -7.10504,0 c -1.60113,0 -2.96879,-0.56709 -4.10293,-1.70123 -0.40027,-0.40028 -0.70048,-0.8339 -0.90063,-1.30092 l -13.70973,-55.03903 c -0.46698,-1.66785 -1.16749,-3.30234 -2.10148,-4.90347 -2.53515,-4.203 -6.17105,-6.9049 -10.90776,-8.10578 -4.80341,-1.20082 -9.33996,-0.5337 -13.60966,2.00142 -4.26968,2.53515 -6.97161,6.20442 -8.10575,11.00783 l -6.40455,25.81831 -6.30448,-25.81831 c -1.13414,-4.80341 -3.81939,-8.47268 -8.05571,-11.00783 -2.64772,-1.58446 -5.4206,-2.44172 -8.31589,-2.56681 z m -334.67757,16.17647 c -5.93754,0 -10.99112,2.08481 -15.16075,6.25445 -4.16962,4.16964 -6.22107,9.15651 -6.15437,14.96061 l 0,62.64448 12.20867,0 0,-62.64448 c -0.0667,-2.46841 0.80057,-4.60325 2.60185,-6.40454 1.80128,-1.80127 3.96948,-2.70193 6.5046,-2.70193 2.46842,0 4.60328,0.90066 6.40455,2.70193 1.80126,1.80129 2.70192,3.93613 2.70192,6.40454 0,2.46844 -0.83392,4.56993 -2.50177,6.30448 -0.80056,0.66715 -1.56778,1.36766 -2.30164,2.10149 -6.20439,6.27112 -9.3066,13.77646 -9.3066,22.51597 0,8.73954 3.10221,16.2115 9.3066,22.41591 6.20442,6.20442 13.6764,9.30663 22.41591,9.30663 l 12.20868,0 0,-12.20868 -12.20868,0 c -5.40382,0 -10.02378,-1.91803 -13.85982,-5.75407 -3.83606,-3.83604 -5.7541,-8.42265 -5.7541,-13.75979 0,-5.40384 1.93471,-10.0071 5.80413,-13.80979 0.66713,-0.66712 1.33428,-1.26756 2.00143,-1.80126 4.26968,-4.26971 6.40454,-9.37331 6.40454,-15.31089 0,-5.8041 -2.08481,-10.79097 -6.25445,-14.96061 -4.16961,-4.16964 -9.18985,-6.25445 -15.0607,-6.25445 z m 73.65228,0 c -3.66927,0 -6.83818,1.30092 -9.50673,3.90278 -2.33499,2.40171 -3.63591,5.17034 -3.90277,8.3059 l -0.10007,0 0,19.21364 40.32861,0 0,-12.20868 -27.9198,0 0,-3.10221 c 0,-1.0674 0.40028,-2.00139 1.20085,-2.80196 0.80057,-0.80057 1.73456,-1.20088 2.80199,-1.20088 l 30.22144,0 0,-12.10859 -33.12352,0 z m 70.45002,0 c -4.40313,0.0667 -8.17246,1.63452 -11.30802,4.70335 -3.13554,3.13556 -4.70335,6.87154 -4.70335,11.20795 0,4.40313 1.56781,8.17249 4.70335,11.30802 3.13556,3.13557 6.90489,4.70335 11.30802,4.70335 l 10.7076,0 c 5.47056,0 10.1572,1.93471 14.05998,5.80411 3.90276,3.86942 5.85416,8.53941 5.85416,14.00997 0,5.47053 -1.9514,10.1572 -5.85416,14.05997 -3.90278,3.90275 -8.58942,5.85414 -14.05998,5.85414 l -42.8304,0 0,12.20868 42.8304,0 c 8.80625,0 16.36162,-3.11889 22.6661,-9.35666 6.30448,-6.23774 9.4567,-13.82646 9.4567,-22.76613 0,-8.80626 -3.15222,-16.34494 -9.4567,-22.61607 -6.30448,-6.2711 -13.85985,-9.40666 -22.6661,-9.40666 l -10.7076,0 c -1.06741,0 -1.96805,-0.36693 -2.70191,-1.10079 -0.73386,-0.73386 -1.10079,-1.63449 -1.10079,-2.70193 0,-1.06743 0.36693,-1.96806 1.10079,-2.70192 0.73386,-0.73383 1.6345,-1.10079 2.70191,-1.10079 l 42.8304,0 0,-12.10859 -42.8304,0 z m 47.7339,0 0,12.10859 5.20369,0 c 1.06741,0 2.00142,0.40031 2.80199,1.20088 0.80056,0.80057 1.20085,1.73456 1.20085,2.80196 l 0,30.32153 c 0,10.34068 3.65258,19.16361 10.95776,26.46879 7.30521,7.3052 16.12813,10.95779 26.46878,10.95779 10.40739,0 19.28035,-3.65259 26.61891,-10.95779 7.33853,-7.30518 11.0078,-16.12811 11.0078,-26.46879 l 0,-30.32153 c 0,-1.0674 0.40028,-2.00139 1.20085,-2.80196 0.80057,-0.80057 1.73456,-1.20088 2.80199,-1.20088 l 5.30376,0 0,-12.10859 -8.10575,0 c -3.73598,0 -6.90492,1.3176 -9.50675,3.95281 -2.60184,2.63522 -3.90275,5.78743 -3.90275,9.45672 l 0,33.02343 c 0,6.87157 -2.46842,12.79242 -7.40527,17.76263 -4.93683,4.97018 -10.94109,7.45527 -18.01279,7.45527 -6.93825,0 -12.8758,-2.48509 -17.81263,-7.45527 -4.93685,-4.97021 -7.40527,-10.89106 -7.40527,-17.76263 l 0,-33.02343 c 0,-3.66929 -1.31761,-6.8215 -3.95281,-9.45672 -2.63519,-2.63521 -5.78742,-3.95281 -9.45668,-3.95281 l -8.00568,0 z m 142.00077,0 c -0.467,0 -0.86728,0.16678 -1.20086,0.50038 -0.26678,0.26684 -0.43356,0.5337 -0.50034,0.80057 l -14.61036,58.24132 c -0.86728,2.335 -2.335,4.53655 -4.40313,6.6047 -3.66929,3.66924 -8.10577,5.50389 -13.30946,5.50389 l -9.3066,0 0,12.20868 9.3066,0 c 8.60612,0 15.94465,-3.0355 22.01562,-9.10647 4.46984,-4.46984 7.27183,-9.70691 8.40597,-15.71115 l 3.60256,-13.80981 6.30448,25.01777 c 1.13414,4.80341 3.83606,8.47268 8.10574,11.0078 4.26971,2.53515 8.80626,3.2023 13.60966,2.00142 4.7367,-1.20083 8.37262,-3.90275 10.90777,-8.10575 0.93398,-1.60113 1.63449,-3.23562 2.10148,-4.90347 l 6.30448,-25.01777 3.50247,13.80981 c 1.13414,6.00424 3.93613,11.24131 8.40597,15.71115 6.07097,6.07097 13.40949,9.10647 22.01562,9.10647 l 9.20654,0 0,-12.20868 -9.20654,0 c -5.20369,0 -9.64017,-1.83465 -13.30944,-5.50389 -2.06813,-2.06815 -3.53582,-4.2697 -4.40312,-6.6047 L 506.98975,370.4555 c -0.0667,-0.26687 -0.23352,-0.53373 -0.50038,-0.80057 -0.33358,-0.3336 -0.73386,-0.50038 -1.20085,-0.50038 -0.467,0 -0.86728,0.16678 -1.20085,0.50038 -0.26684,0.26684 -0.40029,0.60041 -0.40029,1.0007 -11.14125,44.29811 -16.87864,66.74738 -17.21222,67.34779 -0.80057,1.3343 -1.93468,2.20155 -3.4024,2.60186 -1.46769,0.33355 -2.86869,0.10007 -4.20299,-0.7005 -1.33427,-0.80057 -2.20155,-1.93471 -2.60183,-3.40243 -0.0667,-0.33357 -5.60398,-22.28247 -16.61181,-65.84672 0,-0.40029 -0.16677,-0.73386 -0.50036,-1.0007 -0.26686,-0.3336 -0.63378,-0.50038 -1.10077,-0.50038 z m 125.08879,0 c -3.66926,0 -6.83818,1.30092 -9.50676,3.90278 -2.33496,2.40171 -3.63591,5.17034 -3.90276,8.3059 l -0.10007,0 0,19.21364 40.32863,0 0,-12.20868 -27.91983,0 0,-3.10221 c 0,-1.0674 0.40029,-2.00139 1.20085,-2.80196 0.80058,-0.80057 1.73457,-1.20088 2.802,-1.20088 l 30.22146,0 0,-12.10859 -33.12352,0 z m -398.78305,36.22573 0,19.21364 0.10007,0 c 0.26686,3.13556 1.56778,5.90419 3.90277,8.3059 2.66855,2.60183 5.83746,3.90275 9.50673,3.90275 l 33.12352,0 0,-12.20865 -30.22144,0 c -1.06743,0 -2.00142,-0.40029 -2.80199,-1.20086 -0.80057,-0.80056 -1.20085,-1.73458 -1.20085,-2.80198 l 0,-3.00215 27.9198,0 0,-12.20865 -40.32861,0 z m 385.27346,0 0,19.21364 0.10007,0 c 0.26685,3.13556 1.5678,5.90417 3.90276,8.3059 2.66858,2.60183 5.8375,3.90275 9.50676,3.90275 l 33.12352,0 0,-12.20865 -30.22146,0 c -1.06743,0 -2.00142,-0.40029 -2.802,-1.20086 -0.80056,-0.80056 -1.20085,-1.73458 -1.20085,-2.80198 l 0,-3.00215 27.91983,0 0,-12.20865 -40.32863,0 z"
       style="font-style:normal;font-variant:normal;font-weight:normal;font-stretch:normal;font-size:medium;line-height:125%;font-family:'Retro Stereo Wide';-inkscape-font-specification:'Retro Stereo Wide, Normal';text-align:start;letter-spacing:0px;word-spacing:0px;writing-mode:lr-tb;text-anchor:start;fill:#0044aa;fill-opacity:1;stroke:#0066ff;stroke-width:1px;stroke-linecap:butt;stroke-linejoin:miter;stroke-opacity:1;filter:url(#filter4491)" />
    <path
       style="font-style:normal;font-variant:normal;font-weight:normal;font-stretch:normal;font-size:medium;line-height:125%;font-family:'Retro Stereo Wide';-inkscape-font-specification:'Retro Stereo Wide, Normal';text-align:start;letter-spacing:0px;word-spacing:0px;writing-mode:lr-tb;text-anchor:start;fill:#80b3ff;fill-opacity:1;stroke:#80b3ff;stroke-width:1px;stroke-linecap:butt;stroke-linejoin:miter;stroke-opacity:1"
       d="m 124.21804,352.94308 c -10.34068,0 -19.18027,3.66927 -26.518825,11.0078 -7.338536,7.33856 -11.007808,16.14481 -11.007808,26.41875 l 0,62.64448 12.208668,0 0,-62.64448 c 0,-6.93825 2.468425,-12.8758 7.405265,-17.81263 4.93684,-4.93685 10.90773,-7.40527 17.9127,-7.40527 6.93827,0 12.87583,2.46842 17.81265,7.40527 4.93685,4.93683 7.40524,10.87438 7.40524,17.81263 0,7.00499 -2.43503,12.97589 -7.30518,17.91272 l -0.90063,0.90064 -1.20085,1.20085 c -3.06883,3.00214 -4.60328,6.63805 -4.60328,10.90773 0,4.203 1.51775,7.82223 4.55325,10.85773 3.03547,3.0354 6.68806,4.58653 10.95776,4.65329 l 12.20868,0 0,-12.20864 -12.20868,0 c -0.93398,0 -1.73455,-0.33358 -2.4017,-1.00073 -0.66712,-0.66712 -1.0007,-1.43433 -1.0007,-2.30164 0,-0.93398 0.33358,-1.73455 1.0007,-2.4017 0.60036,-0.60044 0.93394,-0.90063 1.00072,-0.90063 0.40026,-0.40026 0.80055,-0.76722 1.20085,-1.10077 7.27183,-7.27185 10.90774,-16.11145 10.90774,-26.51884 0,-10.27394 -3.65261,-19.08019 -10.95777,-26.41875 -7.3052,-7.33853 -16.12813,-11.0078 -26.46881,-11.0078 z m 73.85243,0 c -8.27255,0 -15.34422,2.90205 -21.21506,8.70619 -5.47054,5.53724 -8.37261,12.10857 -8.70619,19.71398 l 0,43.23069 c 0.33359,7.60537 3.23565,14.17672 8.70619,19.71398 5.87084,5.80414 12.94251,8.70619 21.21506,8.70619 l 32.92336,0 0,-12.20868 -32.92336,0 c -4.87012,0 -9.03976,-1.73456 -12.50888,-5.20369 -3.46913,-3.46911 -5.20369,-7.63876 -5.20369,-12.50887 l 0,-40.22857 c 0,-4.87012 1.73456,-9.03974 5.20369,-12.50887 3.46912,-3.46912 7.63876,-5.2037 12.50888,-5.2037 l 32.92336,0 0,-12.20865 -32.92336,0 z m 70.24985,0 c -8.87297,0 -16.44501,3.13556 -22.71611,9.40666 -6.27113,6.27114 -9.40669,13.80982 -9.40669,22.61607 0,8.93967 3.13556,16.52839 9.40669,22.76616 6.2711,6.23775 13.84314,9.35663 22.71611,9.35663 l 10.7076,0 c 1.06743,0 1.96807,0.36694 2.70193,1.10079 0.73385,0.73386 1.10078,1.60114 1.10078,2.60183 0,1.06744 -0.36693,1.96808 -1.10078,2.70194 -0.73386,0.73385 -1.6345,1.10079 -2.70193,1.10079 l -42.8304,0 0,12.20864 42.8304,0 c 4.40313,0 8.17246,-1.56778 11.30802,-4.70332 3.13556,-3.13556 4.70335,-6.90489 4.70335,-11.30805 0,-4.33638 -1.56779,-8.0557 -4.70335,-11.15791 -3.13556,-3.10218 -6.90489,-4.65328 -11.30802,-4.65328 l -10.7076,-0.10008 c -5.47056,-2e-5 -10.1572,-1.95139 -14.05998,-5.85415 -3.90278,-3.90278 -5.85414,-8.58945 -5.85414,-14.05998 0,-5.47056 1.95136,-10.14055 5.85414,-14.00994 3.90278,-3.86943 8.58942,-5.80414 14.05998,-5.80414 l 42.8304,0 0,-12.20865 -42.8304,0 z m 47.7339,0 0,12.20865 7.80552,0 c 4.87015,0 9.03976,1.73458 12.50887,5.20371 3.13557,3.13556 4.83677,6.80482 5.10363,11.00781 l 0,34.22429 c 0,5.80412 2.06813,10.791 6.20443,14.96064 4.13625,4.1696 9.13979,6.25441 15.01064,6.25441 5.93755,0 10.99115,-2.08481 15.16077,-6.25441 4.16964,-4.16964 6.25445,-9.15652 6.25445,-14.96064 l 0,-32.72323 c 0,-4.87012 1.71787,-9.03974 5.15366,-12.50887 3.43575,-3.46912 7.62207,-5.20371 12.5589,-5.20371 l 7.80553,0 0,-12.20865 -7.80553,0 c -8.27255,0 -15.31086,2.90205 -21.11498,8.70619 -5.80411,5.87081 -8.70619,12.87581 -8.70619,21.01491 l 0,32.92336 c 0,2.46843 -0.90063,4.58659 -2.70191,6.35451 -1.80129,1.76793 -4.00284,2.65189 -6.60469,2.65189 -2.53512,0 -4.68665,-0.88396 -6.45459,-2.65189 -1.7679,-1.76792 -2.65188,-3.88608 -2.65188,-6.35451 l 0,-32.82331 0.10009,0 c 0,-8.2058 -2.90205,-15.22746 -8.70618,-21.06493 -5.80415,-5.83749 -12.84245,-8.75622 -21.115,-8.75622 l -7.80552,0 z m 267.2897,0 c -8.27253,0 -15.34422,2.90205 -21.21506,8.70619 -5.47056,5.53724 -8.37261,12.10857 -8.70616,19.71398 l 0,43.23069 c 0.33355,7.60537 3.2356,14.17672 8.70616,19.71398 5.87084,5.80414 12.94253,8.70619 21.21506,8.70619 l 32.92338,0 0,-12.20868 -32.92338,0 c -4.87012,0 -9.03974,-1.73456 -12.50887,-5.20369 -3.46912,-3.46911 -5.2037,-7.63876 -5.2037,-12.50887 l 0,-40.22857 c 0,-4.87012 1.73456,-9.03974 5.2037,-12.50887 3.46913,-3.46912 7.63876,-5.2037 12.50887,-5.2037 l 32.92338,0 0,-12.20865 -32.92338,0 z m -124.44832,0.035 c -1.73717,-0.0751 -3.51751,0.11508 -5.3438,0.56539 -4.73667,1.20087 -8.37259,3.90278 -10.90774,8.10577 -0.93398,1.60113 -1.63449,3.23562 -2.10147,4.90348 l -13.70974,55.03905 c -0.20013,0.46702 -0.50036,0.90064 -0.90065,1.30092 -1.13414,1.13414 -2.50177,1.70123 -4.10289,1.70123 l -7.10505,0 0,12.20865 9.20653,0 c 4.06957,0 7.57204,-1.46769 10.50745,-4.40313 2.20157,-2.20155 3.56921,-4.77005 4.10293,-7.70546 0.40026,-1.40098 2.78528,-10.95777 7.15506,-28.67036 4.36977,-17.71256 6.85489,-27.0692 7.4553,-28.06992 0.80057,-1.33427 1.93471,-2.20157 3.40243,-2.60183 1.46769,-0.33358 2.88535,-0.1001 4.253,0.70048 1.36766,0.80056 2.25161,1.96809 2.65188,3.50249 0.13344,0.46702 5.63734,22.38255 16.51173,65.74668 0,0.40026 0.13342,0.73384 0.40028,1.0007 0.33358,0.33358 0.73386,0.50035 1.20085,0.50035 0.467,0 0.86728,-0.16677 1.20085,-0.50035 0.26682,-0.26686 0.43359,-0.5337 0.50036,-0.80057 10.94114,-43.56426 16.47841,-65.5465 16.6118,-65.94681 0.40028,-1.5344 1.26756,-2.70193 2.60183,-3.50249 1.3343,-0.80057 2.73531,-1.03406 4.203,-0.70048 1.46772,0.40026 2.60183,1.26756 3.4024,2.60183 0.60044,1.00072 5.47056,19.91413 14.61037,56.74028 0.53372,2.9354 1.90137,5.50391 4.10292,7.70546 2.93541,2.93544 6.43789,4.40312 10.50743,4.40312 l 9.20655,0 0,-12.20864 -7.10504,0 c -1.60113,0 -2.96879,-0.56709 -4.10293,-1.70123 -0.40027,-0.40029 -0.70048,-0.83391 -0.90063,-1.30093 l -13.70973,-55.03902 c -0.46698,-1.66785 -1.16749,-3.30234 -2.10148,-4.90348 -2.53515,-4.20299 -6.17105,-6.9049 -10.90776,-8.10577 -4.80341,-1.20083 -9.33996,-0.53371 -13.60966,2.00142 -4.26968,2.53514 -6.97161,6.20442 -8.10575,11.00783 l -6.40455,25.81831 -6.30448,-25.81831 c -1.13414,-4.80341 -3.81939,-8.47269 -8.05571,-11.00783 -2.64772,-1.58446 -5.4206,-2.44172 -8.31589,-2.56681 z m -334.67757,16.17648 c -5.93754,0 -10.99112,2.08481 -15.16075,6.25445 -4.16962,4.16964 -6.22107,9.15651 -6.15437,14.96061 l 0,62.64448 12.20867,0 0,-62.64448 c -0.0667,-2.46841 0.80057,-4.60325 2.60185,-6.40454 1.80128,-1.80127 3.96948,-2.70193 6.5046,-2.70193 2.46842,0 4.60328,0.90066 6.40455,2.70193 1.80126,1.80129 2.70192,3.93613 2.70192,6.40454 0,2.46843 -0.83392,4.56993 -2.50177,6.30448 -0.80056,0.66715 -1.56778,1.36766 -2.30164,2.10149 -6.20439,6.27112 -9.3066,13.77646 -9.3066,22.51597 0,8.73953 3.10221,16.2115 9.3066,22.41591 6.20442,6.20442 13.6764,9.30663 22.41591,9.30663 l 12.20868,0 0,-12.20869 -12.20868,0 c -5.40382,0 -10.02378,-1.91803 -13.85982,-5.75407 -3.83606,-3.83604 -5.7541,-8.42265 -5.7541,-13.75979 0,-5.40384 1.93471,-10.0071 5.80413,-13.80979 0.66713,-0.66712 1.33428,-1.26756 2.00143,-1.80126 4.26968,-4.26971 6.40454,-9.37331 6.40454,-15.31089 0,-5.8041 -2.08481,-10.79097 -6.25445,-14.96061 -4.16961,-4.16964 -9.18985,-6.25445 -15.0607,-6.25445 z m 73.65228,0 c -3.66927,0 -6.83818,1.30092 -9.50673,3.90278 -2.33499,2.40171 -3.63591,5.17034 -3.90277,8.3059 l -0.10007,0 0,19.21364 40.32861,0 0,-12.20868 -27.9198,0 0,-3.10221 c 0,-1.06741 0.40028,-2.0014 1.20085,-2.80197 0.80057,-0.80056 1.73456,-1.20087 2.80199,-1.20087 l 30.22144,0 0,-12.10859 -33.12352,0 z m 70.45002,0 c -4.40312,0.0667 -8.17246,1.63452 -11.30802,4.70335 -3.13553,3.13556 -4.70335,6.87154 -4.70335,11.20795 0,4.40312 1.56782,8.17248 4.70335,11.30802 3.13556,3.13556 6.9049,4.70335 11.30802,4.70335 l 10.70761,0 c 5.47055,0 10.15719,1.9347 14.05997,5.8041 3.90276,3.86942 5.85416,8.53941 5.85416,14.00997 0,5.47053 -1.9514,10.1572 -5.85416,14.05998 -3.90278,3.90275 -8.58942,5.85413 -14.05997,5.85413 l -42.8304,0 0,12.20869 42.8304,0 c 8.80624,0 16.36162,-3.1189 22.6661,-9.35666 6.30448,-6.23774 9.4567,-13.82646 9.4567,-22.76613 0,-8.80626 -3.15222,-16.34494 -9.4567,-22.61607 -6.30448,-6.2711 -13.85985,-9.40666 -22.6661,-9.40666 l -10.70761,0 c -1.06741,0 -1.96805,-0.36693 -2.70191,-1.10079 -0.73386,-0.73386 -1.10079,-1.63449 -1.10079,-2.70193 0,-1.06743 0.36693,-1.96806 1.10079,-2.70192 0.73386,-0.73383 1.6345,-1.10079 2.70191,-1.10079 l 42.8304,0 0,-12.10859 -42.8304,0 z m 47.7339,0 0,12.10859 5.20369,0 c 1.06741,0 2.00142,0.40031 2.80199,1.20087 0.80056,0.80057 1.20085,1.73456 1.20085,2.80197 l 0,30.32152 c 0,10.34069 3.65258,19.16362 10.95776,26.4688 7.30521,7.3052 16.12813,10.95779 26.46878,10.95779 10.40739,0 19.28035,-3.65259 26.61891,-10.95779 7.33853,-7.30518 11.0078,-16.12811 11.0078,-26.4688 l 0,-30.32152 c 0,-1.06741 0.40028,-2.0014 1.20085,-2.80197 0.80057,-0.80056 1.73456,-1.20087 2.80199,-1.20087 l 5.30376,0 0,-12.10859 -8.10575,0 c -3.73598,0 -6.90492,1.3176 -9.50675,3.95281 -2.60184,2.63522 -3.90275,5.78742 -3.90275,9.45672 l 0,33.02343 c 0,6.87157 -2.46842,12.79242 -7.40527,17.76263 -4.93683,4.97018 -10.94109,7.45527 -18.01279,7.45527 -6.93825,0 -12.8758,-2.48509 -17.81263,-7.45527 -4.93685,-4.97021 -7.40527,-10.89106 -7.40527,-17.76263 l 0,-33.02343 c 0,-3.66929 -1.31761,-6.8215 -3.95281,-9.45672 -2.63519,-2.63521 -5.78742,-3.95281 -9.45668,-3.95281 l -8.00568,0 z m 142.00077,0 c -0.467,0 -0.86728,0.16678 -1.20085,0.50038 -0.26678,0.26684 -0.43356,0.5337 -0.50034,0.80057 l -14.61037,58.24132 c -0.86727,2.335 -2.33499,4.53655 -4.40312,6.6047 -3.66929,3.66924 -8.10577,5.50389 -13.30946,5.50389 l -9.3066,0 0,12.20868 9.3066,0 c 8.60611,0 15.94465,-3.0355 22.01562,-9.10647 4.46984,-4.46984 7.27183,-9.70691 8.40597,-15.71115 l 3.60256,-13.80981 6.30448,25.01777 c 1.13414,4.80341 3.83606,8.47268 8.10574,11.0078 4.26971,2.53514 8.80626,3.20229 13.60966,2.00142 4.7367,-1.20083 8.37262,-3.90276 10.90777,-8.10575 0.93398,-1.60114 1.63449,-3.23562 2.10148,-4.90348 l 6.30448,-25.01777 3.50247,13.80982 c 1.13414,6.00424 3.93613,11.24131 8.40596,15.71114 6.07097,6.07097 13.4095,9.10648 22.01563,9.10648 l 9.20654,0 0,-12.20869 -9.20654,0 c -5.20369,0 -9.64018,-1.83465 -13.30944,-5.50389 -2.06813,-2.06815 -3.53582,-4.2697 -4.40312,-6.6047 L 506.98976,370.4555 c -0.0667,-0.26687 -0.23351,-0.53373 -0.50038,-0.80057 -0.33357,-0.3336 -0.73385,-0.50038 -1.20085,-0.50038 -0.46699,0 -0.86728,0.16678 -1.20085,0.50038 -0.26684,0.26684 -0.40028,0.60041 -0.40028,1.0007 -11.14125,44.29811 -16.87865,66.74738 -17.21222,67.34779 -0.80057,1.3343 -1.93469,2.20155 -3.4024,2.60186 -1.46769,0.33355 -2.8687,0.10007 -4.203,-0.7005 -1.33427,-0.80057 -2.20155,-1.93471 -2.60183,-3.40243 -0.0667,-0.33357 -5.60398,-22.28247 -16.61181,-65.84672 0,-0.40029 -0.16677,-0.73386 -0.50035,-1.0007 -0.26686,-0.3336 -0.63379,-0.50038 -1.10078,-0.50038 z m 125.08879,0 c -3.66925,0 -6.83818,1.30092 -9.50676,3.90278 -2.33496,2.40171 -3.6359,5.17034 -3.90276,8.3059 l -0.10006,0 0,19.21364 40.32862,0 0,-12.20868 -27.91982,0 0,-3.10221 c 0,-1.06741 0.40028,-2.0014 1.20084,-2.80197 0.80058,-0.80056 1.73457,-1.20087 2.80201,-1.20087 l 30.22145,0 0,-12.10859 -33.12352,0 z m -398.78305,36.22573 0,19.21364 0.10007,0 c 0.26686,3.13556 1.56778,5.90419 3.90277,8.3059 2.66855,2.60183 5.83746,3.90275 9.50673,3.90275 l 33.12352,0 0,-12.20865 -30.22144,0 c -1.06743,0 -2.00142,-0.40029 -2.80199,-1.20086 -0.80057,-0.80056 -1.20085,-1.73458 -1.20085,-2.80198 l 0,-3.00215 27.9198,0 0,-12.20865 -40.32861,0 z m 385.27347,0 0,19.21364 0.10006,0 c 0.26685,3.13556 1.5678,5.90417 3.90276,8.3059 2.66858,2.60183 5.83751,3.90275 9.50676,3.90275 l 33.12352,0 0,-12.20865 -30.22145,0 c -1.06743,0 -2.00143,-0.40029 -2.80201,-1.20086 -0.80056,-0.80056 -1.20084,-1.73458 -1.20084,-2.80198 l 0,-3.00215 27.91982,0 0,-12.20865 -40.32862,0 z"
       id="path4213"
       inkscape:connector-curvature="0" />
  </g>
</svg>
